<svg width="300" height="207" viewBox="0 0 300 207" fill="none" xmlns="http://www.w3.org/2000/svg">
<ellipse cx="153.011" cy="65.3105" rx="40.148" ry="65.3105" fill="white"/>
<ellipse cx="40.148" cy="65.3105" rx="40.148" ry="65.3105" transform="matrix(1 0 0 -1 219.704 173.801)" fill="white"/>
<ellipse cx="99.9224" cy="86.9008" rx="40.148" ry="65.3105" fill="white"/>
<ellipse cx="40.148" cy="65.3105" rx="40.148" ry="65.3105" transform="matrix(1 0 0 -1 166.616 152.211)" fill="white"/>
<ellipse cx="46.8355" cy="108.491" rx="40.148" ry="65.3105" fill="white"/>
<ellipse cx="40.148" cy="65.3105" rx="40.148" ry="65.3105" transform="matrix(1 0 0 -1 113.527 130.621)" fill="white"/>
<ellipse cx="146.988" cy="140.707" rx="40.148" ry="65.3105" transform="rotate(180 146.988 140.707)" fill="white"/>
<ellipse cx="40.148" cy="65.3105" rx="40.148" ry="65.3105" transform="matrix(-1 0 0 1 80.2959 32.2158)" fill="white"/>
<ellipse cx="200.077" cy="119.116" rx="40.148" ry="65.3105" transform="rotate(180 200.077 119.116)" fill="white"/>
<ellipse cx="40.148" cy="65.3105" rx="40.148" ry="65.3105" transform="matrix(-1 0 0 1 133.384 53.8057)" fill="white"/>
<ellipse cx="253.165" cy="97.5264" rx="40.148" ry="65.3105" transform="rotate(180 253.165 97.5264)" fill="white"/>
<ellipse cx="40.148" cy="65.3105" rx="40.148" ry="65.3105" transform="matrix(-1 0 0 1 186.473 75.396)" fill="white"/>
</svg>
