<svg width="489" height="207" viewBox="0 0 489 207" fill="none" xmlns="http://www.w3.org/2000/svg">
<ellipse cx="248.913" cy="69.1429" rx="65.3105" ry="69.1429" fill="white"/>
<ellipse cx="65.3105" cy="69.1429" rx="65.3105" ry="69.1429" transform="matrix(1 0 0 -1 357.403 184)" fill="white"/>
<ellipse cx="162.552" cy="92.0003" rx="65.3105" ry="69.1429" fill="white"/>
<ellipse cx="65.3105" cy="69.1429" rx="65.3105" ry="69.1429" transform="matrix(1 0 0 -1 271.043 161.143)" fill="white"/>
<ellipse cx="76.1904" cy="114.857" rx="65.3105" ry="69.1429" fill="white"/>
<ellipse cx="65.3105" cy="69.1429" rx="65.3105" ry="69.1429" transform="matrix(1 0 0 -1 184.682 138.286)" fill="white"/>
<circle cx="239.111" cy="140.707" r="65.3105" transform="rotate(180 239.111 140.707)" fill="white"/>
<circle cx="65.3105" cy="65.3105" r="65.3105" transform="matrix(-1 0 0 1 130.621 32.2158)" fill="white"/>
<circle cx="325.474" cy="119.116" r="65.3105" transform="rotate(180 325.474 119.116)" fill="white"/>
<circle cx="65.3105" cy="65.3105" r="65.3105" transform="matrix(-1 0 0 1 216.981 53.8057)" fill="white"/>
<circle cx="411.834" cy="97.5264" r="65.3105" transform="rotate(180 411.834 97.5264)" fill="white"/>
<circle cx="65.3105" cy="65.3105" r="65.3105" transform="matrix(-1 0 0 1 303.343 75.396)" fill="white"/>
</svg>
