<svg width="489" height="207" viewBox="0 0 489 207" fill="none" xmlns="http://www.w3.org/2000/svg">
<circle cx="248.913" cy="65.3105" r="65.3105" fill="white"/>
<circle cx="65.3105" cy="65.3105" r="65.3105" transform="matrix(1 0 0 -1 357.403 173.801)" fill="white"/>
<circle cx="162.552" cy="86.9008" r="65.3105" fill="white"/>
<circle cx="65.3105" cy="65.3105" r="65.3105" transform="matrix(1 0 0 -1 271.043 152.211)" fill="white"/>
<circle cx="76.1904" cy="108.491" r="65.3105" fill="white"/>
<circle cx="65.3105" cy="65.3105" r="65.3105" transform="matrix(1 0 0 -1 184.682 130.621)" fill="white"/>
<circle cx="239.111" cy="140.707" r="65.3105" transform="rotate(180 239.111 140.707)" fill="white"/>
<circle cx="65.3105" cy="65.3105" r="65.3105" transform="matrix(-1 0 0 1 130.621 32.2158)" fill="white"/>
<circle cx="325.474" cy="119.116" r="65.3105" transform="rotate(180 325.474 119.116)" fill="white"/>
<circle cx="65.3105" cy="65.3105" r="65.3105" transform="matrix(-1 0 0 1 216.981 53.8057)" fill="white"/>
<circle cx="411.834" cy="97.5264" r="65.3105" transform="rotate(180 411.834 97.5264)" fill="white"/>
<circle cx="65.3105" cy="65.3105" r="65.3105" transform="matrix(-1 0 0 1 303.343 75.396)" fill="white"/>
</svg>
