<svg width="100" height="100" viewBox="0 0 100 100" fill="none" xmlns="http://www.w3.org/2000/svg">
<circle cx="50" cy="50" r="50" transform="matrix(-1 0 0 1 100 0)" fill="#F266AB" fill-opacity="0.53"/>
<path d="M50 27C40.1 27 32 33.7008 32 41.9687C32 59.5854 48.4571 71.636 49.1643 72.1764C49.6143 72.5006 50.3857 72.5006 50.8357 72.1764C51.5429 71.636 68 59.5313 68 41.9687C68 33.7008 59.9 27 50 27ZM50 69.8527C46.6571 67.1508 34.5714 56.343 34.5714 41.9687C34.5714 34.8897 41.5143 29.1615 50 29.1615C58.4857 29.1615 65.4286 34.8897 65.4286 41.9687C65.4286 56.343 53.3429 67.1508 50 69.8527ZM50 33.4846C44.3429 33.4846 39.7143 37.3754 39.7143 42.1308C39.7143 46.8863 44.3429 50.777 50 50.777C55.6571 50.777 60.2857 46.8863 60.2857 42.1308C60.2857 37.3754 55.6571 33.4846 50 33.4846ZM50 48.6155C45.7571 48.6155 42.2857 45.6974 42.2857 42.1308C42.2857 38.5643 45.7571 35.6462 50 35.6462C54.2429 35.6462 57.7143 38.5643 57.7143 42.1308C57.7143 45.6974 54.2429 48.6155 50 48.6155Z" fill="white"/>
</svg>
