<svg width="100" height="100" viewBox="0 0 100 100" fill="none" xmlns="http://www.w3.org/2000/svg">
<circle cx="50" cy="50" r="50" transform="matrix(-1 0 0 1 100 0)" fill="#F266AB" fill-opacity="0.53"/>
<path d="M56.8315 22H25.5156C23.7832 22.0063 22.124 22.6998 20.9025 23.9282C19.6809 25.1567 18.9967 26.8197 19.0001 28.5521V63.2947C18.9962 63.6334 19.1249 63.9601 19.3587 64.2052L33.3144 78.5955C33.4348 78.722 33.5795 78.823 33.7397 78.8925C33.9 78.962 34.0725 78.9985 34.2472 79H56.8315C60.4358 79 63.3189 76.0522 63.3189 72.4479V28.5521C63.3189 24.9478 60.4358 22 56.8315 22ZM32.9886 74.4535L23.3772 64.6193H31.6325C32.3534 64.6193 32.9886 65.1885 32.9886 65.9094V74.4535ZM60.7042 72.4479C60.7095 72.9597 60.6138 73.4676 60.4228 73.9425C60.2317 74.4174 59.949 74.85 59.5908 75.2157C59.2325 75.5813 58.8058 75.8728 58.3349 76.0735C57.8639 76.2742 57.3581 76.3801 56.8463 76.3853H35.6033V65.9094C35.6033 63.7467 33.7951 62.0046 31.6325 62.0046H21.6148V28.5521C21.6107 27.5129 22.0192 26.5146 22.7505 25.7763C23.4819 25.0381 24.4764 24.6203 25.5156 24.6147H56.8315C57.8651 24.6213 58.8538 25.0382 59.5801 25.7737C60.3064 26.5092 60.7108 27.5031 60.7043 28.5367V72.4479H60.7042Z" fill="white"/>
<path d="M54.0089 38.9951H29.1433C28.7965 38.9951 28.464 39.1329 28.2188 39.378C27.9737 39.6232 27.8359 39.9557 27.8359 40.3025C27.8359 40.6492 27.9737 40.9817 28.2188 41.2269C28.464 41.4721 28.7965 41.6098 29.1433 41.6098H54.0089C54.3556 41.6098 54.6881 41.4721 54.9333 41.2269C55.1785 40.9817 55.3162 40.6492 55.3162 40.3025C55.3162 39.9557 55.1785 39.6232 54.9333 39.378C54.6881 39.1329 54.3556 38.9951 54.0089 38.9951Z" fill="white"/>
<path d="M54.0089 46.8398H29.1433C28.7965 46.8398 28.464 46.9776 28.2188 47.2228C27.9737 47.4679 27.8359 47.8005 27.8359 48.1472C27.8359 48.4939 27.9737 48.8264 28.2188 49.0716C28.464 49.3168 28.7965 49.4545 29.1433 49.4545H54.0089C54.3556 49.4545 54.6881 49.3168 54.9333 49.0716C55.1785 48.8264 55.3162 48.4939 55.3162 48.1472C55.3162 47.8005 55.1785 47.4679 54.9333 47.2228C54.6881 46.9776 54.3556 46.8398 54.0089 46.8398Z" fill="white"/>
<path d="M54.0089 54.6836H29.1433C28.7965 54.6836 28.464 54.8213 28.2188 55.0665C27.9737 55.3117 27.8359 55.6442 27.8359 55.9909C27.8359 56.3377 27.9737 56.6702 28.2188 56.9154C28.464 57.1605 28.7965 57.2983 29.1433 57.2983H54.0089C54.3556 57.2983 54.6881 57.1605 54.9333 56.9154C55.1785 56.6702 55.3162 56.3377 55.3162 55.9909C55.3162 55.6442 55.1785 55.3117 54.9333 55.0665C54.6881 54.8213 54.3556 54.6836 54.0089 54.6836Z" fill="white"/>
<path d="M29.1433 34.2895H40.6234C40.9701 34.2895 41.3027 34.1517 41.5478 33.9066C41.793 33.6614 41.9308 33.3289 41.9308 32.9821C41.9308 32.6354 41.793 32.3029 41.5478 32.0577C41.3027 31.8125 40.9701 31.6748 40.6234 31.6748H29.1433C28.7965 31.6748 28.464 31.8125 28.2188 32.0577C27.9737 32.3029 27.8359 32.6354 27.8359 32.9821C27.8359 33.3289 27.9737 33.6614 28.2188 33.9066C28.464 34.1517 28.7965 34.2895 29.1433 34.2895Z" fill="white"/>
<path d="M74.3593 23.2842C72.8173 23.2861 71.339 23.8993 70.2483 24.9893C69.1575 26.0792 68.5434 27.5571 68.5403 29.0991L68.5142 68.5807C68.514 68.791 68.5646 68.9982 68.6616 69.1847L73.1995 77.9124C73.3099 78.1247 73.4764 78.3026 73.681 78.4267C73.8855 78.5509 74.1201 78.6166 74.3594 78.6166C74.5987 78.6166 74.8333 78.5509 75.0378 78.4267C75.2424 78.3026 75.4089 78.1247 75.5193 77.9124L80.0572 69.1847C80.1542 68.9982 80.2048 68.791 80.2047 68.5807L80.1785 29.0991C80.1754 27.5571 79.5612 26.0792 78.4704 24.9892C77.3797 23.8992 75.9013 23.2861 74.3593 23.2842ZM77.5688 36.5117H71.1498L71.1505 35.2044H77.5676L77.5688 36.5117ZM77.5706 39.1264L77.5891 67.2342H71.1298L71.1485 39.1264H77.5706ZM74.3595 25.8989C75.2088 25.9 76.0229 26.2378 76.6236 26.8382C77.2242 27.4386 77.5624 28.2526 77.564 29.1018L77.5662 32.5897H71.1528L71.155 29.1014C71.1566 28.2522 71.4949 27.4383 72.0955 26.838C72.6962 26.2377 73.5103 25.9 74.3595 25.8989ZM74.3595 74.4353L71.9748 69.8489H76.744L74.3595 74.4353Z" fill="white"/>
</svg>
