<svg width="100" height="100" viewBox="0 0 100 100" fill="none" xmlns="http://www.w3.org/2000/svg">
<circle cx="50" cy="50" r="50" transform="matrix(-1 0 0 1 100 0)" fill="#F266AB" fill-opacity="0.53"/>
<path d="M18 49.3865V50.5154H31.0666V51.9695V72.7583V74.2121H18V75.341H32.4088V72.7583H39.2439V69.2262H41.7675L55.6861 75.0017L79.7138 63.4006C81.535 62.5212 82.2585 60.5812 81.3613 58.9841C80.552 57.5458 78.698 56.7744 76.8461 57.1067L74.4244 57.5428L65.6773 50.1855H63.8955V39.5666L65.8928 37.8867C67.0204 38.0573 68.1267 38.1489 69.1854 38.1489C72.7654 38.1489 75.8081 37.181 77.9845 35.3502C82.7774 31.3197 80.8333 25.571 80.8175 24.3948C80.6705 24.3967 72.0112 22.3812 67.0975 27.4402C64.7495 29.859 63.9506 33.3062 64.835 37.1801L62.5534 39.0992V41.5136L58.0661 38.353C58.9119 34.5343 58.1078 31.1236 55.7793 28.725C50.7481 23.543 42.1604 25.6956 42.0488 25.6912C42.0474 25.8092 39.9424 32.4723 44.8917 36.635C47.0686 38.4659 50.112 39.4335 53.6914 39.4338C54.7856 39.4338 55.9322 39.3363 57.1106 39.1518L62.5535 42.9856V50.1855H60.7238L53.2198 56.497L50.9841 54.6147H39.2439V51.9695H32.4088V49.3866L18 49.3865ZM68.1374 28.1543C70.568 25.6499 74.7674 24.6087 79.6843 25.3567C80.5054 29.165 79.5716 32.4195 77.0355 34.5521C74.7073 36.5104 71.1976 37.3453 67.0661 36.8999L71.4337 33.2263L70.4848 32.4281L66.0101 36.1918C65.4674 32.9828 66.1977 30.1521 68.1374 28.1543ZM56.8619 37.5049L52.7141 34.5835L51.853 35.4489L55.7337 38.1822C55.0385 38.2548 54.3522 38.3049 53.6919 38.3049C50.4762 38.3046 47.7605 37.4514 45.8403 35.8369C43.3049 33.704 42.3717 30.4489 43.1922 26.6409C48.0639 25.8982 52.3065 26.9331 54.7391 29.4391C56.6852 31.4433 57.4137 34.285 56.8619 37.5049ZM61.2793 51.3144H65.1215L72.8613 57.8243L57.9797 60.5042L54.1684 57.2955L61.2793 51.3144ZM39.2439 55.7435H50.4284C50.4396 55.7532 50.4469 55.7594 50.4564 55.7675C50.4717 55.7807 50.4936 55.7994 50.5249 55.8264C50.5282 55.8292 50.5303 55.831 50.533 55.8333C50.5373 55.837 50.5432 55.842 50.5478 55.8459C50.5466 55.845 50.5462 55.8446 50.5444 55.843C50.5477 55.8459 50.5492 55.8471 50.55 55.8479C50.958 56.1979 52.5764 57.5864 58.0984 62.3241C58.9202 63.0643 58.8835 64.2384 58.0165 64.9412C57.1915 65.6118 55.8689 65.6357 55.0079 64.9966L49.6604 61.0243L48.7717 61.8705L54.1193 65.8427C55.5034 66.8708 57.6241 66.8273 58.9484 65.754C60.339 64.6262 60.398 62.7419 59.0801 61.5541L58.9936 61.4761L77.1266 58.2108C78.3632 57.9881 79.607 58.504 80.1476 59.4667C80.7486 60.5352 80.2643 61.8333 79.0454 62.4216L55.6389 73.7229L42.0808 68.0973H39.2438L39.2439 55.7435ZM50.4504 55.7624C50.4147 55.7317 50.4249 55.7406 50.4504 55.7624V55.7624ZM50.462 55.7724C50.4744 55.783 50.4868 55.7936 50.4963 55.8017C50.4845 55.7916 50.4728 55.7815 50.462 55.7724ZM37.9017 53.0983V71.6294H32.4088V53.0983H37.9017Z" fill="white"/>
<path d="M50.5501 55.8477L50.5478 55.8457C50.5506 55.8482 50.5513 55.8487 50.5501 55.8477ZM26.2828 72.2316C27.5927 72.2316 28.6583 71.3354 28.6583 70.2336C28.6583 69.1317 27.5927 68.2355 26.2828 68.2355C24.9728 68.2355 23.9072 69.1317 23.9072 70.2336C23.9072 71.3354 24.9727 72.2316 26.2828 72.2316ZM26.2828 69.3643C26.8529 69.3643 27.3162 69.7543 27.3162 70.2335C27.3162 70.7128 26.8529 71.1027 26.2828 71.1027C25.7127 71.1027 25.2493 70.7128 25.2493 70.2335C25.2493 69.7543 25.7127 69.3643 26.2828 69.3643Z" fill="white"/>
<path d="M30.308 46.6133H23.7021V47.7421H30.308V46.6133Z" fill="white"/>
<path d="M22.6023 46.6133H20.5244V47.7421H22.6023V46.6133Z" fill="white"/>
<path d="M28.7066 44.1211H27.4053V45.2499H28.7066V44.1211Z" fill="white"/>
<path d="M26.3729 44.1211H22.125V45.2499H26.3729V44.1211Z" fill="white"/>
<path d="M28.6965 55.6855H27.3545V57.0414H28.6965V55.6855Z" fill="white"/>
<path d="M28.6962 52.3506H24.1865V53.4794H27.3541V54.781H28.6962V52.3506Z" fill="white"/>
<path d="M45.4717 73.6105L51.5903 76.1484L52.1839 75.136L46.0653 72.5981L45.4717 73.6105Z" fill="white"/>
<path d="M43.2039 71.4095L42.6104 72.4219L44.4386 73.1802L45.0322 72.1678L43.2039 71.4095Z" fill="white"/>
<path d="M71.303 68.7806L61.9668 73.4697L62.6548 74.4389L71.9911 69.7497L71.303 68.7806Z" fill="white"/>
<path d="M73.0509 67.8991L72.1211 68.3662L72.8093 69.3353L73.7391 68.8682L73.0509 67.8991Z" fill="white"/>
<path d="M48.1476 52.002H44.1133V53.1308H48.1476V52.002Z" fill="white"/>
<path d="M43.0187 52.002H41.4468V53.1308H43.0187V52.002Z" fill="white"/>
<path d="M61.1687 44.1455H59.8267V48.3248H61.1687V44.1455Z" fill="white"/>
<path d="M71.2391 39.2115C70.5752 39.279 69.8839 39.3135 69.1846 39.3135V40.4423C69.9376 40.4423 70.6834 40.4052 71.4003 40.3321L71.2391 39.2115ZM78.9648 36.1738C77.2937 37.5786 75.2051 38.5266 72.7561 38.9916L73.0511 40.0929C75.7517 39.5803 78.0604 38.5302 79.9137 36.972L78.9648 36.1738ZM50.1289 40.2778C47.6767 39.8139 45.5855 38.8653 43.9118 37.4584L42.9629 38.2571C44.8188 39.8173 47.1308 40.8676 49.834 41.379L50.1289 40.2778ZM53.6913 40.5983C53.0858 40.5983 52.4855 40.5724 51.9068 40.5214L51.7666 41.6442C52.3918 41.6993 53.0399 41.7271 53.6926 41.7271L53.6913 40.5983Z" fill="white"/>
<path d="M71.49 52.9412L74.2817 55.1875L75.2094 54.3718L72.4177 52.1256L71.49 52.9412Z" fill="white"/>
<path d="M70.331 52.011L71.2588 51.1953L69.9034 50.1047L68.9757 50.9203L70.331 52.011Z" fill="white"/>
<path d="M61.7575 54.9476L60.8086 54.1494L59.616 55.1525L60.565 55.9507L61.7575 54.9476Z" fill="white"/>
<path d="M60.2127 58.0094L61.1616 58.8076L62.3542 57.8046L61.4053 57.0064L60.2127 58.0094Z" fill="white"/>
<path d="M67.703 56.2559L66.7539 55.457L65.5604 56.4602L66.5096 57.259L67.703 56.2559Z" fill="white"/>
<path d="M65.24 53.3539L64.291 52.5557L63.0979 53.5591L64.0469 54.3573L65.24 53.3539Z" fill="white"/>
</svg>
