<svg width="100" height="100" viewBox="0 0 100 100" fill="none" xmlns="http://www.w3.org/2000/svg">
<circle cx="50" cy="50" r="50" transform="matrix(-1 0 0 1 100 0)" fill="#F266AB" fill-opacity="0.53"/>
<path d="M26.4375 52.6819C26.4375 52.9219 26.533 53.152 26.7029 53.3218C26.8729 53.4915 27.1034 53.5868 27.3438 53.5868C27.5841 53.5868 27.8146 53.4915 27.9846 53.3218C28.1545 53.152 28.25 52.9219 28.25 52.6819C28.1915 48.9454 28.9622 45.2423 30.5069 41.8385C32.0515 38.4347 34.3317 35.4147 37.1838 32.9953L37.1566 34.655C37.1547 34.7738 37.1762 34.8919 37.22 35.0024C37.2638 35.113 37.329 35.2138 37.4118 35.2992C37.4946 35.3846 37.5934 35.4528 37.7027 35.5C37.8119 35.5473 37.9294 35.5725 38.0484 35.5744H38.0629C38.3007 35.5745 38.5291 35.4811 38.6986 35.3145C38.8682 35.1479 38.9653 34.9214 38.9691 34.684L39.0289 31.0641C39.0249 31.03 39.0188 30.9961 39.0108 30.9627C39.0108 30.9356 39.0108 30.9084 38.9963 30.8813C38.9689 30.709 38.8914 30.5485 38.7734 30.4198C38.6904 30.3342 38.5913 30.2659 38.4818 30.2187C38.3723 30.1715 38.2546 30.1463 38.1354 30.1447L34.4524 30.0849C34.3328 30.0808 34.2136 30.1008 34.1019 30.1437C33.9902 30.1866 33.8884 30.2516 33.8024 30.3347C33.7165 30.4178 33.6482 30.5174 33.6017 30.6275C33.5551 30.7376 33.5313 30.8559 33.5316 30.9754C33.5297 31.0943 33.5513 31.2123 33.595 31.3228C33.6388 31.4334 33.704 31.5342 33.7868 31.6196C33.8696 31.705 33.9684 31.7732 34.0777 31.8205C34.1869 31.8677 34.3044 31.893 34.4234 31.8949L35.6378 31.9148C32.6963 34.5099 30.3513 37.7092 28.7633 41.2936C27.1753 44.878 26.382 48.7628 26.4375 52.6819ZM71.402 48.5643L70.3852 47.6919C70.2024 47.5387 69.9664 47.4637 69.7286 47.4832C69.4907 47.5027 69.2702 47.6151 69.1148 47.796C68.9594 47.9769 68.8818 48.2117 68.8987 48.4494C68.9157 48.6871 69.0258 48.9085 69.2052 49.0656L71.9548 51.4185C72.1192 51.5598 72.3288 51.6375 72.5457 51.6375H72.6562C72.804 51.6258 72.9466 51.5774 73.0709 51.4969C73.1953 51.4163 73.2976 51.306 73.3686 51.176L75.5998 48.5824C75.7531 48.3998 75.8282 48.1642 75.8087 47.9267C75.7892 47.6892 75.6766 47.4689 75.4955 47.3138C75.3144 47.1586 75.0792 47.0811 74.8412 47.098C74.6031 47.1149 74.3814 47.2249 74.2241 47.4041L73.229 48.5607C72.7305 44.5937 71.3343 40.7921 69.1461 37.4439C66.9579 34.0957 64.0352 31.2889 60.5995 29.2361C60.4956 29.1728 60.38 29.131 60.2596 29.1133C60.1392 29.0955 60.0164 29.1022 59.8986 29.1329C59.7809 29.1636 59.6705 29.2176 59.5741 29.2919C59.4777 29.3661 59.3972 29.4589 59.3376 29.5648C59.2779 29.6708 59.2402 29.7876 59.2267 29.9084C59.2133 30.0292 59.2243 30.1515 59.2592 30.2679C59.2941 30.3844 59.3521 30.4926 59.4298 30.5862C59.5075 30.6797 59.6032 30.7567 59.7114 30.8125C62.8701 32.7047 65.5613 35.2831 67.5852 38.3563C69.6091 41.4295 70.9137 44.9185 71.402 48.5643ZM73.5625 68.0898V67.1613C73.5573 67.0898 73.5433 67.0193 73.5208 66.9513C74.6391 66.1872 75.4829 65.0857 75.9288 63.808C76.3747 62.5303 76.3992 61.1436 75.9987 59.851C75.5983 58.5584 74.7938 57.4278 73.7033 56.6248C72.6128 55.8218 71.2934 55.3886 69.9384 55.3886C68.5834 55.3886 67.2641 55.8218 66.1735 56.6248C65.083 57.4278 64.2786 58.5584 63.8781 59.851C63.4776 61.1436 63.5021 62.5303 63.948 63.808C64.3939 65.0857 65.2378 66.1872 66.356 66.9513C66.3329 67.0192 66.3182 67.0898 66.3125 67.1613V68.0898C64.8537 68.1472 63.4735 68.7652 62.4602 69.8148C61.447 70.8644 60.879 72.2644 60.875 73.7222V76.2109C60.875 76.9309 61.1614 77.6215 61.6713 78.1306C62.1812 78.6398 62.8727 78.9258 63.5938 78.9258H76.2812C77.0023 78.9258 77.6938 78.6398 78.2037 78.1306C78.7136 77.6215 79 76.9309 79 76.2109V73.7222C78.996 72.2644 78.428 70.8644 77.4148 69.8148C76.4015 68.7652 75.0213 68.1472 73.5625 68.0898ZM69.9375 57.2067C70.7851 57.2102 71.6147 57.451 72.3321 57.9018C73.0494 58.3526 73.6258 58.9953 73.9957 59.7569L70.4015 58.7397C69.5438 58.497 68.6296 58.5454 67.8024 58.8772L65.9536 59.6211C66.3352 58.8951 66.9077 58.2866 67.6097 57.8612C68.3116 57.4358 69.1164 57.2095 69.9375 57.2067ZM65.4062 61.7478C65.4771 61.7428 65.547 61.7295 65.6147 61.708L68.4802 60.555C68.9328 60.3695 69.4351 60.3427 69.9049 60.479L74.3509 61.746C74.3902 61.7486 74.4295 61.7486 74.4688 61.746C74.4688 62.946 73.9914 64.0969 73.1416 64.9455C72.2918 65.7941 71.1393 66.2708 69.9375 66.2708C68.7357 66.2708 67.5832 65.7941 66.7334 64.9455C65.8836 64.0969 65.4062 62.946 65.4062 61.746V61.7478ZM71.75 67.7712V68.0662C71.75 68.5462 71.559 69.0066 71.2191 69.346C70.8792 69.6855 70.4182 69.8762 69.9375 69.8762C69.4568 69.8762 68.9958 69.6855 68.6559 69.346C68.316 69.0066 68.125 68.5462 68.125 68.0662V67.7712C69.3011 68.1651 70.5739 68.1651 71.75 67.7712ZM77.1875 76.2109C77.1875 76.4509 77.092 76.6811 76.9221 76.8508C76.7521 77.0205 76.5216 77.1159 76.2812 77.1159H63.5938C63.3534 77.1159 63.1229 77.0205 62.9529 76.8508C62.783 76.6811 62.6875 76.4509 62.6875 76.2109V73.7222C62.6885 72.7025 63.0946 71.7248 63.8167 71.0037C64.5388 70.2826 65.5179 69.8771 66.5391 69.8762H66.8164C67.1328 70.4302 67.5915 70.89 68.1451 71.2081C68.6987 71.5263 69.3273 71.6912 69.966 71.6861C70.6047 71.6809 71.2305 71.5058 71.7789 71.1788C72.3272 70.8517 72.7784 70.3846 73.0858 69.8255C73.1663 69.8544 73.2505 69.8715 73.3359 69.8762C74.3571 69.8771 75.3362 70.2826 76.0583 71.0037C76.7804 71.7248 77.1865 72.7025 77.1875 73.7222V76.2109ZM53.625 33.7012V32.7727C53.6198 32.7012 53.6058 32.6307 53.5833 32.5627C54.7016 31.7986 55.5454 30.6971 55.9913 29.4194C56.4372 28.1417 56.4617 26.755 56.0612 25.4624C55.6608 24.1698 54.8563 23.0392 53.7658 22.2362C52.6753 21.4332 51.3559 21 50.0009 21C48.6459 21 47.3266 21.4332 46.236 22.2362C45.1455 23.0392 44.341 24.1698 43.9406 25.4624C43.5401 26.755 43.5646 28.1417 44.0105 29.4194C44.4564 30.6971 45.3003 31.7986 46.4185 32.5627C46.3954 32.6306 46.3807 32.7012 46.375 32.7727V33.7012C44.916 33.7581 43.5356 34.376 42.5222 35.4257C41.5089 36.4754 40.9411 37.8756 40.9375 39.3336V41.8223C40.9375 42.5423 41.2239 43.2329 41.7338 43.742C42.2437 44.2512 42.9352 44.5372 43.6562 44.5372H56.3438C57.0648 44.5372 57.7563 44.2512 58.2662 43.742C58.7761 43.2329 59.0625 42.5423 59.0625 41.8223V39.3336C59.0589 37.8756 58.4911 36.4754 57.4778 35.4257C56.4644 34.376 55.084 33.7581 53.625 33.7012ZM50 22.8181C50.8478 22.8218 51.6775 23.0629 52.3949 23.514C53.1123 23.9651 53.6886 24.6082 54.0582 25.3701L50.4622 24.3493C49.6048 24.1089 48.692 24.1573 47.8649 24.4868L46.0161 25.2325C46.3977 24.5065 46.9702 23.898 47.6722 23.4726C48.3741 23.0472 49.1789 22.8209 50 22.8181ZM45.4688 27.361C45.5396 27.3561 45.6096 27.3427 45.6772 27.3212L48.55 26.1664C49.0032 25.9837 49.5045 25.9569 49.9746 26.0904L54.4207 27.3574C54.4593 27.36 54.4981 27.36 54.5367 27.3574C54.5367 28.5574 54.0593 29.7083 53.2095 30.5569C52.3597 31.4055 51.2072 31.8822 50.0054 31.8822C48.8037 31.8822 47.6511 31.4055 46.8014 30.5569C45.9516 29.7083 45.4742 28.5574 45.4742 27.3574L45.4688 27.361ZM51.8125 33.3826V33.6776C51.8125 34.1577 51.6215 34.618 51.2816 34.9574C50.9417 35.2969 50.4807 35.4876 50 35.4876C49.5193 35.4876 49.0583 35.2969 48.7184 34.9574C48.3785 34.618 48.1875 34.1577 48.1875 33.6776V33.3826C49.3636 33.7765 50.6364 33.7765 51.8125 33.3826ZM57.25 41.8223C57.25 42.0623 57.1545 42.2925 56.9846 42.4622C56.8146 42.6319 56.5841 42.7273 56.3438 42.7273H43.6562C43.4159 42.7273 43.1854 42.6319 43.0154 42.4622C42.8455 42.2925 42.75 42.0623 42.75 41.8223V39.3336C42.751 38.3139 43.1571 37.3362 43.8792 36.6151C44.6013 35.894 45.5804 35.4885 46.6016 35.4876H46.8789C47.1953 36.0416 47.654 36.5014 48.2076 36.8195C48.7612 37.1377 49.3898 37.3026 50.0285 37.2975C50.6672 37.2923 51.293 37.1172 51.8414 36.7902C52.3897 36.4631 52.8409 35.996 53.1483 35.4369C53.2288 35.4658 53.313 35.4829 53.3984 35.4876C54.4196 35.4885 55.3987 35.894 56.1208 36.6151C56.8429 37.3362 57.249 38.3139 57.25 39.3336V41.8223ZM33.6875 68.0898V67.1613C33.6823 67.0898 33.6683 67.0193 33.6458 66.9513C34.7641 66.1872 35.6079 65.0857 36.0538 63.808C36.4997 62.5303 36.5242 61.1436 36.1237 59.851C35.7233 58.5584 34.9188 57.4278 33.8283 56.6248C32.7378 55.8218 31.4184 55.3886 30.0634 55.3886C28.7084 55.3886 27.3891 55.8218 26.2985 56.6248C25.208 57.4278 24.4035 58.5584 24.0031 59.851C23.6026 61.1436 23.6271 62.5303 24.073 63.808C24.5189 65.0857 25.3628 66.1872 26.481 66.9513C26.4579 67.0192 26.4432 67.0898 26.4375 67.1613V68.0898C24.9787 68.1472 23.5985 68.7652 22.5852 69.8148C21.572 70.8644 21.004 72.2644 21 73.7222V76.2109C21 76.9309 21.2864 77.6215 21.7963 78.1306C22.3062 78.6398 22.9977 78.9258 23.7188 78.9258H36.4062C37.1273 78.9258 37.8188 78.6398 38.3287 78.1306C38.8386 77.6215 39.125 76.9309 39.125 76.2109V73.7222C39.121 72.2644 38.553 70.8644 37.5398 69.8148C36.5265 68.7652 35.1463 68.1472 33.6875 68.0898ZM30.0625 57.2067C30.9101 57.2102 31.7397 57.451 32.4571 57.9018C33.1744 58.3526 33.7508 58.9953 34.1207 59.7569L30.5265 58.7397C29.6688 58.497 28.7546 58.5454 27.9274 58.8772L26.0786 59.6211C26.4602 58.8951 27.0327 58.2866 27.7347 57.8612C28.4366 57.4358 29.2414 57.2095 30.0625 57.2067ZM25.5312 61.7478C25.6021 61.7428 25.672 61.7295 25.7397 61.708L28.6125 60.5568C29.0651 60.3713 29.5673 60.3445 30.0371 60.4808L34.4832 61.7478C34.5224 61.7504 34.5618 61.7504 34.601 61.7478C34.601 62.9478 34.1236 64.0987 33.2738 64.9473C32.4241 65.7959 31.2715 66.2726 30.0698 66.2726C28.868 66.2726 27.7154 65.7959 26.8657 64.9473C26.0159 64.0987 25.5385 62.9478 25.5385 61.7478H25.5312ZM31.875 67.7712V68.0662C31.875 68.5462 31.684 69.0066 31.3441 69.346C31.0042 69.6855 30.5432 69.8762 30.0625 69.8762C29.5818 69.8762 29.1208 69.6855 28.7809 69.346C28.441 69.0066 28.25 68.5462 28.25 68.0662V67.7712C28.8363 67.9581 29.4471 68.0575 30.0625 68.0662C30.6779 68.0575 31.2887 67.9581 31.875 67.7712ZM37.3125 76.2109C37.3125 76.4509 37.217 76.6811 37.0471 76.8508C36.8771 77.0205 36.6466 77.1159 36.4062 77.1159H23.7188C23.4784 77.1159 23.2479 77.0205 23.0779 76.8508C22.908 76.6811 22.8125 76.4509 22.8125 76.2109V73.7222C22.8135 72.7025 23.2196 71.7248 23.9417 71.0037C24.6638 70.2826 25.6429 69.8771 26.6641 69.8762H26.9414C27.2578 70.4302 27.7165 70.89 28.2701 71.2081C28.8237 71.5263 29.4523 71.6912 30.091 71.6861C30.7297 71.6809 31.3555 71.5058 31.9039 71.1788C32.4522 70.8517 32.9034 70.3846 33.2108 69.8255C33.2913 69.8544 33.3755 69.8715 33.4609 69.8762C34.4821 69.8771 35.4612 70.2826 36.1833 71.0037C36.9054 71.7248 37.3115 72.7025 37.3125 73.7222V76.2109ZM57.511 73.8091C53.7881 75.3452 49.6829 75.7034 45.7497 74.8353L47.1598 73.686C47.3461 73.5344 47.4644 73.315 47.4887 73.0762C47.513 72.8374 47.4413 72.5988 47.2894 72.4128C47.1375 72.2268 46.9178 72.1086 46.6787 72.0844C46.4396 72.0601 46.2006 72.1317 46.0143 72.2834L43.272 74.515C43.1607 74.5925 43.0688 74.6947 43.0037 74.8136C42.9892 74.8372 42.9766 74.8571 42.9657 74.8824C42.9483 74.9098 42.9326 74.9382 42.9186 74.9675C42.9118 75.0052 42.9075 75.0432 42.9059 75.0815C42.8915 75.1451 42.8842 75.21 42.8841 75.2752C42.8852 75.3085 42.8882 75.3417 42.8932 75.3747C42.9046 75.4715 42.9321 75.5657 42.9747 75.6534C42.9989 75.7173 43.0305 75.778 43.069 75.8344L45.3582 78.6416C45.4317 78.7385 45.5239 78.8195 45.6295 78.88C45.735 78.9404 45.8516 78.9791 45.9724 78.9936C46.0932 79.008 46.2157 78.9981 46.3326 78.9643C46.4495 78.9305 46.5583 78.8735 46.6527 78.7968C46.747 78.7201 46.8249 78.6252 46.8818 78.5178C46.9386 78.4104 46.9732 78.2926 46.9835 78.1715C46.9938 78.0505 46.9795 77.9286 46.9416 77.8131C46.9037 77.6977 46.8429 77.591 46.7629 77.4996L46.1466 76.7448C50.2014 77.508 54.3912 77.0675 58.1979 75.4779C58.3079 75.4324 58.4078 75.3657 58.492 75.2816C58.5761 75.1975 58.6429 75.0977 58.6884 74.9879C58.7339 74.878 58.7573 74.7603 58.7573 74.6415C58.7573 74.5226 58.7338 74.4049 58.6882 74.2951C58.6426 74.1853 58.5758 74.0855 58.4916 74.0015C58.4075 73.9174 58.3075 73.8508 58.1975 73.8053C58.0875 73.7599 57.9697 73.7365 57.8506 73.7365C57.7316 73.7365 57.6137 73.76 57.5037 73.8055L57.511 73.8091Z" fill="white"/>
</svg>
