<svg width="100" height="100" viewBox="0 0 100 100" fill="none" xmlns="http://www.w3.org/2000/svg">
<circle cx="50" cy="50" r="50" transform="matrix(-1 0 0 1 100 0)" fill="#F266AB" fill-opacity="0.53"/>
<path d="M69.8418 30.8152C67.562 30.8152 65.7075 32.375 65.7075 34.2929C65.7075 34.6654 65.7958 35.0175 65.9254 35.3541L61.6265 38.2643C61.3906 38.4245 61.2534 38.6652 61.2534 38.9198V43.4379C61.0037 43.3382 60.7664 43.2584 60.5412 43.1947C61.0015 41.7898 60.1063 40.6041 59.4038 40.0771C59.0662 39.8484 58.7406 39.679 58.4296 39.5524C58.3732 39.4915 58.3201 39.4283 58.2422 39.3806C57.2036 38.7454 56.2364 38.269 55.3408 37.9469V31.7014L59.8595 28.6427C60.704 29.368 61.8774 29.8213 63.1768 29.8213C65.7402 29.8213 67.8262 28.0668 67.8262 25.9106C67.8262 23.7545 65.7402 22 63.1768 22C60.6133 22 58.5273 23.7545 58.5273 25.9106C58.5273 26.3632 58.6373 26.7913 58.8063 27.196L53.7139 30.6435C53.478 30.8037 53.3408 31.0443 53.3408 31.299V37.486C52.7115 37.4291 52.126 37.4636 51.5981 37.6154C51.1329 37.7486 50.7758 37.9462 50.4884 38.1592C50.2011 37.946 49.8439 37.7481 49.3784 37.6146C48.8505 37.463 48.2648 37.4285 47.6353 37.4854V31.299C47.6353 31.0443 47.498 30.8037 47.2622 30.6435L42.1698 27.196C42.3387 26.7913 42.4487 26.3632 42.4487 25.9106C42.4487 23.7545 40.3628 22 37.7993 22C35.2358 22 33.1499 23.7545 33.1499 25.9106C33.1499 28.0668 35.2358 29.8213 37.7993 29.8213C39.0986 29.8213 40.2721 29.368 41.1166 28.6427L45.6353 31.7014V37.9462C44.7403 38.2682 43.7736 38.7441 42.7358 39.379C42.6532 39.4294 42.5954 39.4956 42.537 39.5608C42.2184 39.6918 41.8832 39.8669 41.5332 40.1042C40.8622 40.6093 39.9731 41.7908 40.4344 43.1947C40.2092 43.2584 39.9719 43.3382 39.7222 43.4379V38.9198C39.7222 38.6652 39.585 38.4245 39.3491 38.2643L35.0507 35.3542C35.1802 35.0175 35.2686 34.6654 35.2686 34.2929C35.2686 32.375 33.4141 30.8152 31.1343 30.8152C28.8545 30.8152 27 32.375 27 34.2929C27 36.21 28.8545 37.7699 31.1343 37.7699C32.2435 37.7699 33.2471 37.3961 33.9904 36.7961L37.7222 39.3223V44.8718C37.0992 45.6936 36.9079 46.6799 37.1729 47.8196C36.8315 48.1958 36.3488 48.8348 36.1063 49.6353C35.7085 49.6368 35.3491 49.8355 35.1919 50.1433C34.3789 51.7318 33.9585 53.4066 33.9414 55.1217C33.9009 58.5798 35.4839 61.862 38.6416 64.8732C39.8477 66.0404 40.5122 67.5239 40.5093 69.1231L40.2246 76.6429C40.2158 76.8721 40.3184 77.0939 40.5088 77.2573C40.6968 77.42 40.9551 77.5111 41.2241 77.5111C41.2266 77.5111 41.2295 77.5111 41.2324 77.5111L59.5874 77.3863C60.1362 77.3822 60.5791 77.0068 60.5791 76.5452V75.8462C60.5791 73.6391 62.7178 71.7959 65.4536 71.6505C66.2109 71.6062 66.8018 71.1059 66.8267 70.517L67.0376 68.011C67.0571 67.7785 66.9609 67.5493 66.7715 67.3785C66.5825 67.2076 66.3174 67.1107 66.04 67.1107L65.3848 67.1132C65.3154 67.0918 65.1738 66.9308 65.1738 66.7937C65.1738 66.7017 65.2832 66.5932 65.376 66.5932H66.2075C66.7334 66.5932 67.1694 66.2507 67.2051 65.8088L67.4141 63.2247L71.3662 62.2095C71.6846 62.1282 71.9341 61.9179 72.0308 61.6501C72.1279 61.3823 72.0601 61.0916 71.8496 60.8739L67.0083 55.8733C67.0176 55.6597 67.0186 55.4388 67.0186 55.2482C67.0186 53.483 66.6035 51.7672 65.7856 50.1474C65.6295 49.838 65.2689 49.6368 64.8694 49.6353C64.627 48.8348 64.1446 48.1958 63.8032 47.8196C64.0683 46.6803 63.8768 45.6932 63.2534 44.8711V39.3223L66.9857 36.7961C67.7289 37.3961 68.7326 37.7699 69.8418 37.7699C72.1216 37.7699 73.9761 36.21 73.9761 34.2929C73.9761 32.375 72.1216 30.8152 69.8418 30.8152ZM63.1768 23.6822C64.6377 23.6822 65.8262 24.6818 65.8262 25.9106C65.8262 27.1394 64.6377 28.1391 63.1768 28.1391C61.7158 28.1391 60.5273 27.1394 60.5273 25.9106C60.5273 24.6818 61.7158 23.6822 63.1768 23.6822ZM37.7993 28.1391C36.3384 28.1391 35.1499 27.1394 35.1499 25.9106C35.1499 24.6818 36.3384 23.6822 37.7993 23.6822C39.2603 23.6822 40.4487 24.6818 40.4487 25.9106C40.4487 27.1394 39.2603 28.1391 37.7993 28.1391ZM31.1343 36.0877C29.9575 36.0877 29 35.2827 29 34.2929C29 33.3031 29.9575 32.4974 31.1343 32.4974C32.311 32.4974 33.2686 33.3031 33.2686 34.2929C33.2686 35.2827 32.311 36.0877 31.1343 36.0877ZM52.2432 39.2073C52.6729 39.0853 53.5452 39.0473 55.0719 39.6968C54.1506 40.1984 53.6497 40.9373 53.5796 41.048C53.3193 41.4546 53.5005 41.9598 53.9829 42.1815C54.4673 42.4025 55.0718 42.253 55.3384 41.8481C55.4824 41.6296 56 41.0382 56.6538 40.9306C57.0938 40.8599 57.5952 41.0119 58.1021 41.3528C58.2639 41.4798 58.9568 42.1017 58.5095 42.9701C55.3948 43.2329 54.3608 45.6829 54.2578 47.0212C54.2222 47.4828 54.6377 47.8803 55.1865 47.9124C55.7217 47.9543 56.2124 47.5953 56.2534 47.1337C56.2764 46.8758 56.5479 44.626 59.0771 44.626C59.0879 44.626 59.0986 44.626 59.1094 44.626H59.1572C59.4282 44.6605 60.8643 44.8823 61.5444 45.7275C61.9609 46.245 62.0303 46.9481 61.751 47.8187C61.6577 48.1087 61.7554 48.4183 62.0068 48.6311C62.0136 48.6368 62.4645 49.0397 62.7628 49.6348H59.7596C61.118 48.4475 61.3409 46.7266 61.3525 46.6269C61.4053 46.1661 61.0044 45.757 60.4565 45.711C59.9092 45.6683 59.4189 46.0026 59.3618 46.4626C59.3594 46.484 59.0698 48.6459 57.1226 49.0229C57.1064 49.027 55.4941 49.4336 54.5288 48.3181C54.2036 47.9419 53.5786 47.859 53.1318 48.1325C52.6855 48.406 52.5864 48.9317 52.9116 49.3071C53.0161 49.4278 53.1265 49.5323 53.2375 49.6348H51.4878V45.3724C51.6553 45.1213 52.0742 44.5983 52.6509 44.626C53.1729 44.635 53.6621 44.2712 53.6758 43.8062C53.6899 43.3422 53.2539 42.9561 52.7017 42.9438C52.2529 42.9407 51.8499 43.0278 51.4878 43.1648V39.7633C51.5709 39.6253 51.7921 39.3366 52.2432 39.2073ZM42.8271 41.3864C43.3799 41.0119 43.8804 40.8566 44.3223 40.9306C44.9761 41.0382 45.4937 41.6296 45.6348 41.8431C45.8955 42.253 46.5024 42.4066 46.9888 42.1865C47.4751 41.9672 47.6577 41.4571 47.3965 41.048C47.3264 40.9373 46.8257 40.1987 45.9047 39.6971C47.4092 39.0581 48.2765 39.0859 48.7056 39.1991C49.1772 39.3256 49.4038 39.6213 49.4878 39.7617V45.0543C48.9644 44.8395 48.4481 44.74 48.0669 44.7237C47.5303 44.6975 47.0459 45.058 47.0186 45.5221C46.9907 45.9862 47.4155 46.3805 47.9673 46.4043C47.9786 46.4043 49.0556 46.4694 49.4878 47.3711V49.6348H49.0668C49.0715 49.6295 49.0768 49.6255 49.0815 49.62C49.4067 49.2447 49.3076 48.7182 48.8608 48.4455C48.4146 48.1736 47.7886 48.2557 47.4644 48.6311C46.5317 49.7088 45.0322 49.3769 44.7964 49.3202C42.9233 48.9596 42.6338 46.7969 42.6313 46.7756C42.5762 46.3148 42.0942 45.9821 41.5405 46.0224C40.9907 46.0667 40.5879 46.4774 40.6406 46.9398C40.6513 47.0312 40.8395 48.4832 41.8922 49.6348H38.214C38.5133 49.0391 38.9651 48.6346 38.9692 48.6311C39.2207 48.4183 39.3184 48.1087 39.2251 47.8187C38.9458 46.9481 39.0151 46.245 39.4316 45.7275C40.1138 44.8798 41.5566 44.6597 41.8179 44.626H41.875C41.8862 44.626 41.8965 44.626 41.9072 44.626C44.4268 44.626 44.6997 46.8741 44.7227 47.1329C44.7607 47.5945 45.2393 47.9288 45.7847 47.9148C46.3359 47.8844 46.7539 47.4844 46.7183 47.0212C46.6152 45.6818 45.58 43.2292 42.4662 42.9697C42.0187 42.1018 42.707 41.4835 42.8271 41.3864ZM65.21 56.6799L69.3599 60.9659L66.1709 61.7856C65.7739 61.8875 65.4932 62.1848 65.4653 62.5331L65.2729 64.9135C64.125 64.9611 63.1738 65.8031 63.1738 66.7937C63.1738 67.6397 63.8936 68.572 64.9697 68.7592L64.8647 70.0077C61.3594 70.3774 58.6626 72.8038 58.5811 75.7107L42.2568 75.8215L42.5034 69.2931C42.5039 69.2841 42.5068 69.2143 42.5068 69.2061L42.5122 69.0517C42.5122 67.1181 41.6733 65.2421 40.146 63.7652C37.3203 61.0702 35.9058 58.1682 35.9414 55.1365C35.9541 53.828 36.2378 52.545 36.7856 51.317H64.1865C64.7388 52.5754 65.0186 53.8954 65.0186 55.2482C65.0186 55.4987 65.0205 55.8133 64.9902 56.0638C64.9639 56.2856 65.043 56.5066 65.21 56.6799ZM69.8418 36.0877C68.665 36.0877 67.7075 35.2827 67.7075 34.2929C67.7075 33.3031 68.665 32.4974 69.8418 32.4974C71.0186 32.4974 71.9761 33.3031 71.9761 34.2929C71.9761 35.2827 71.0186 36.0877 69.8418 36.0877Z" fill="white"/>
</svg>
