<svg width="44" height="37" viewBox="0 0 44 37" fill="none" xmlns="http://www.w3.org/2000/svg">
<path d="M30.243 0H13.7468C10.1009 0 6.60439 1.21819 4.02635 3.38658C1.44832 5.55497 0 8.49593 0 11.5625L0 25.4375C0 28.5041 1.44832 31.445 4.02635 33.6134C6.60439 35.7818 10.1009 37 13.7468 37H30.243C33.8889 37 37.3855 35.7818 39.9635 33.6134C42.5415 31.445 43.9899 28.5041 43.9899 25.4375V11.5625C43.9899 8.49593 42.5415 5.55497 39.9635 3.38658C37.3855 1.21819 33.8889 0 30.243 0ZM39.8658 25.4375C39.8658 29.9006 35.5493 33.5312 30.243 33.5312H13.7468C8.44056 33.5312 4.12405 29.9006 4.12405 25.4375V11.5625C4.12405 7.09938 8.44056 3.46875 13.7468 3.46875H30.243C35.5493 3.46875 39.8658 7.09938 39.8658 11.5625V25.4375Z" fill="white"/>
<path d="M21.995 9.24951C19.0783 9.24951 16.2811 10.2241 14.2186 11.9588C12.1562 13.6935 10.9976 16.0463 10.9976 18.4995C10.9976 20.9528 12.1562 23.3055 14.2186 25.0402C16.2811 26.775 19.0783 27.7495 21.995 27.7495C24.9117 27.7495 27.709 26.775 29.7714 25.0402C31.8338 23.3055 32.9925 20.9528 32.9925 18.4995C32.9925 16.0463 31.8338 13.6935 29.7714 11.9588C27.709 10.2241 24.9117 9.24951 21.995 9.24951ZM21.995 24.2808C20.1728 24.2789 18.4257 23.6692 17.1372 22.5854C15.8487 21.5016 15.1238 20.0322 15.1216 18.4995C15.1216 15.3106 18.2064 12.7183 21.995 12.7183C25.7837 12.7183 28.8684 15.3106 28.8684 18.4995C28.8684 21.6861 25.7837 24.2808 21.995 24.2808Z" fill="#FBFBFB"/>
<path d="M33.8175 9.78837C34.6268 9.78837 35.2829 9.23653 35.2829 8.5558C35.2829 7.87508 34.6268 7.32324 33.8175 7.32324C33.0081 7.32324 32.3521 7.87508 32.3521 8.5558C32.3521 9.23653 33.0081 9.78837 33.8175 9.78837Z" fill="white"/>
</svg>
