<svg width="1440" height="550" viewBox="0 0 1440 550" fill="none" xmlns="http://www.w3.org/2000/svg">
<path d="M0.000215006 249.205C0.000215006 146.812 58.8759 63.8052 131.503 63.8052C204.13 63.8052 263.005 146.812 263.005 249.205C263.005 351.599 204.13 434.605 131.503 434.605C58.8759 434.605 0.000215006 351.599 0.000215006 249.205Z" fill="#A459D1"/>
<path d="M572.046 249.207C572.046 146.813 630.922 63.8066 703.549 63.8066C776.176 63.8066 835.051 146.813 835.051 249.207C835.051 351.6 776.176 434.607 703.549 434.607C630.922 434.607 572.046 351.6 572.046 249.207Z" fill="#A459D1"/>
<path d="M155.682 185.4C155.682 83.0065 214.558 -1.70241e-05 287.185 -1.70241e-05C359.812 -1.70241e-05 418.688 83.0065 418.688 185.4C418.688 287.794 359.812 370.8 287.185 370.8C214.558 370.8 155.682 287.794 155.682 185.4Z" fill="#A459D1"/>
<path d="M419.08 185.401C419.08 83.0074 477.956 0.000959538 550.582 0.000959538C623.209 0.000959538 682.085 83.0074 682.085 185.401C682.085 287.795 623.209 370.801 550.582 370.801C477.956 370.801 419.08 287.795 419.08 185.401Z" fill="#A459D1"/>
<path d="M727.729 185.401C727.729 83.0069 786.605 0.000471257 859.232 0.000471257C931.859 0.000471257 990.734 83.0069 990.734 185.401C990.734 287.794 931.859 370.801 859.232 370.801C786.605 370.801 727.729 287.794 727.729 185.401Z" fill="#A459D1"/>
<path d="M1035.47 185.401C1035.47 83.0069 1094.35 0.000471257 1166.97 0.000471257C1239.6 0.000471257 1298.48 83.0069 1298.48 185.401C1298.48 287.794 1239.6 370.801 1166.97 370.801C1094.35 370.801 1035.47 287.794 1035.47 185.401Z" fill="#A459D1"/>
<path d="M296.882 249.205C296.882 146.812 355.758 63.8052 428.385 63.8052C501.011 63.8052 559.887 146.812 559.887 249.205C559.887 351.599 501.011 434.605 428.385 434.605C355.758 434.605 296.882 351.599 296.882 249.205Z" fill="#A459D1"/>
<path d="M868.928 249.206C868.928 146.813 927.804 63.8061 1000.43 63.8061C1073.06 63.8061 1131.93 146.813 1131.93 249.206C1131.93 351.6 1073.06 434.606 1000.43 434.606C927.804 434.606 868.928 351.6 868.928 249.206Z" fill="#A459D1"/>
<path d="M1176.66 249.206C1176.66 146.812 1235.54 63.8056 1308.17 63.8056C1380.79 63.8056 1439.67 146.812 1439.67 249.206C1439.67 351.599 1380.79 434.606 1308.17 434.606C1235.54 434.606 1176.66 351.599 1176.66 249.206Z" fill="#A459D1"/>
<rect y="269" width="1440" height="281" fill="#A459D1"/>
</svg>
