<svg width="848" height="2400" viewBox="0 0 848 2400" fill="none" xmlns="http://www.w3.org/2000/svg">
<ellipse cx="189.123" cy="344.75" rx="189.123" ry="268.98" fill="#FFAC53"/>
<ellipse cx="435.96" cy="322.018" rx="226.415" ry="322.018" fill="#FFAC53"/>
<ellipse cx="657.936" cy="344.75" rx="189.123" ry="268.98" fill="#FFAC53"/>
<ellipse cx="189.123" cy="730.074" rx="189.123" ry="268.98" fill="#FFAC53"/>
<ellipse cx="435.96" cy="707.343" rx="226.415" ry="322.018" fill="#FFAC53"/>
<ellipse cx="657.936" cy="730.074" rx="189.123" ry="268.98" fill="#FFAC53"/>
<ellipse cx="189.123" cy="1115.39" rx="189.123" ry="268.98" fill="#FFAC53"/>
<ellipse cx="435.96" cy="1092.66" rx="226.415" ry="322.018" fill="#FFAC53"/>
<ellipse cx="657.936" cy="1115.39" rx="189.123" ry="268.98" fill="#FFAC53"/>
<ellipse cx="189.123" cy="1517.22" rx="189.123" ry="268.98" fill="#FFAC53"/>
<ellipse cx="435.96" cy="1494.49" rx="226.415" ry="322.018" fill="#FFAC53"/>
<ellipse cx="657.936" cy="1517.22" rx="189.123" ry="268.98" fill="#FFAC53"/>
<ellipse cx="189.123" cy="1691.54" rx="189.123" ry="268.98" fill="#FFAC53"/>
<ellipse cx="435.96" cy="1668.81" rx="226.415" ry="322.018" fill="#FFAC53"/>
<ellipse cx="657.936" cy="1691.54" rx="189.123" ry="268.98" fill="#FFAC53"/>
<ellipse cx="189.123" cy="2100.71" rx="189.123" ry="268.98" fill="#FFAC53"/>
<ellipse cx="435.96" cy="2077.98" rx="226.415" ry="322.018" fill="#FFAC53"/>
<ellipse cx="657.936" cy="2100.71" rx="189.123" ry="268.98" fill="#FFAC53"/>
</svg>
