<svg width="300" height="127" viewBox="0 0 300 127" fill="none" xmlns="http://www.w3.org/2000/svg">
<circle cx="153.013" cy="40.1478" r="40.1478" fill="white"/>
<circle cx="40.1478" cy="40.1478" r="40.1478" transform="matrix(1 0 0 -1 219.705 106.839)" fill="white"/>
<circle cx="99.9242" cy="53.4203" r="40.1478" fill="white"/>
<circle cx="40.1478" cy="40.1478" r="40.1478" transform="matrix(1 0 0 -1 166.616 93.5674)" fill="white"/>
<circle cx="46.8358" cy="66.6917" r="40.1478" fill="white"/>
<circle cx="40.1478" cy="40.1478" r="40.1478" transform="matrix(1 0 0 -1 113.527 80.2959)" fill="white"/>
<circle cx="146.987" cy="86.4953" r="40.1478" transform="rotate(180 146.987 86.4953)" fill="white"/>
<circle cx="40.1478" cy="40.1478" r="40.1478" transform="matrix(-1 0 0 1 80.2954 19.8032)" fill="white"/>
<circle cx="200.075" cy="73.2228" r="40.1478" transform="rotate(180 200.075 73.2228)" fill="white"/>
<circle cx="40.1478" cy="40.1478" r="40.1478" transform="matrix(-1 0 0 1 133.383 33.0747)" fill="white"/>
<circle cx="253.163" cy="59.9508" r="40.1478" transform="rotate(180 253.163 59.9508)" fill="white"/>
<circle cx="40.1478" cy="40.1478" r="40.1478" transform="matrix(-1 0 0 1 186.471 46.3472)" fill="white"/>
</svg>
