<svg width="1091" height="550" viewBox="0 0 1091 550" fill="none" xmlns="http://www.w3.org/2000/svg">
<path d="M-0.000318931 157.819C-0.000318931 92.9745 44.6127 40.4074 99.6456 40.4074C154.679 40.4074 199.292 92.9745 199.292 157.819C199.292 222.664 154.679 275.231 99.6456 275.231C44.6127 275.231 -0.000318931 222.664 -0.000318931 157.819Z" fill="#A459D1"/>
<path d="M1090.91 392.181C1090.91 457.026 1046.3 509.593 991.265 509.593C936.232 509.593 891.619 457.026 891.619 392.181C891.619 327.336 936.232 274.769 991.265 274.769C1046.3 274.769 1090.91 327.336 1090.91 392.181Z" fill="#A459D1"/>
<path d="M433.465 157.82C433.465 92.975 478.078 40.4079 533.11 40.4079C588.143 40.4079 632.756 92.975 632.756 157.82C632.756 222.665 588.143 275.232 533.11 275.232C478.078 275.232 433.465 222.665 433.465 157.82Z" fill="#A459D1"/>
<path d="M657.446 392.181C657.446 457.025 612.833 509.593 557.8 509.593C502.767 509.593 458.154 457.025 458.154 392.181C458.154 327.336 502.767 274.769 557.8 274.769C612.833 274.769 657.446 327.336 657.446 392.181Z" fill="#A459D1"/>
<path d="M117.968 117.412C117.968 52.5673 162.581 0.000139918 217.614 0.000139918C272.647 0.000139918 317.26 52.5673 317.26 117.412C317.26 182.257 272.647 234.824 217.614 234.824C162.581 234.824 117.968 182.257 117.968 117.412Z" fill="#A459D1"/>
<path d="M972.943 432.588C972.943 497.433 928.33 550 873.297 550C818.264 550 773.651 497.433 773.651 432.588C773.651 367.743 818.264 315.176 873.297 315.176C928.33 315.176 972.943 367.743 972.943 432.588Z" fill="#A459D1"/>
<path d="M317.554 117.412C317.554 52.5673 362.167 0.000139918 417.2 0.000139918C472.233 0.000139918 516.846 52.5673 516.846 117.412C516.846 182.257 472.233 234.824 417.2 234.824C362.167 234.824 317.554 182.257 317.554 117.412Z" fill="#A459D1"/>
<path d="M773.358 432.588C773.358 497.433 728.745 550 673.712 550C618.679 550 574.066 497.433 574.066 432.588C574.066 367.743 618.679 315.176 673.712 315.176C728.745 315.176 773.358 367.743 773.358 432.588Z" fill="#A459D1"/>
<path d="M551.433 117.412C551.433 52.5673 596.046 0.000139918 651.079 0.000139918C706.112 0.000139918 750.725 52.5673 750.725 117.412C750.725 182.257 706.112 234.824 651.079 234.824C596.046 234.824 551.433 182.257 551.433 117.412Z" fill="#A459D1"/>
<path d="M539.478 432.588C539.478 497.433 494.865 550 439.832 550C384.8 550 340.187 497.433 340.187 432.588C340.187 367.743 384.8 315.176 439.832 315.176C494.865 315.176 539.478 367.743 539.478 432.588Z" fill="#A459D1"/>
<path d="M784.625 117.412C784.625 52.5673 829.238 0.000139918 884.271 0.000139918C939.304 0.000139918 983.917 52.5673 983.917 117.412C983.917 182.257 939.304 234.824 884.271 234.824C829.238 234.824 784.625 182.257 784.625 117.412Z" fill="#A459D1"/>
<path d="M306.285 432.588C306.285 497.433 261.672 550 206.64 550C151.607 550 106.994 497.433 106.994 432.588C106.994 367.743 151.607 315.176 206.64 315.176C261.672 315.176 306.285 367.743 306.285 432.588Z" fill="#A459D1"/>
<path d="M224.962 157.819C224.962 92.9745 269.575 40.4074 324.608 40.4074C379.64 40.4074 424.253 92.9745 424.253 157.819C424.253 222.664 379.64 275.231 324.608 275.231C269.575 275.231 224.962 222.664 224.962 157.819Z" fill="#A459D1"/>
<path d="M865.949 392.181C865.949 457.026 821.336 509.593 766.303 509.593C711.27 509.593 666.657 457.026 666.657 392.181C666.657 327.336 711.27 274.769 766.303 274.769C821.336 274.769 865.949 327.336 865.949 392.181Z" fill="#A459D1"/>
<path d="M658.426 157.82C658.426 92.975 703.039 40.4079 758.072 40.4079C813.105 40.4079 857.718 92.975 857.718 157.82C857.718 222.665 813.105 275.232 758.072 275.232C703.039 275.232 658.426 222.665 658.426 157.82Z" fill="#A459D1"/>
<path d="M432.484 392.181C432.484 457.025 387.871 509.593 332.838 509.593C277.805 509.593 233.192 457.025 233.192 392.181C233.192 327.336 277.805 274.769 332.838 274.769C387.871 274.769 432.484 327.336 432.484 392.181Z" fill="#A459D1"/>
<path d="M891.617 157.819C891.617 92.9745 936.23 40.4074 991.263 40.4074C1046.3 40.4074 1090.91 92.9745 1090.91 157.819C1090.91 222.664 1046.3 275.231 991.263 275.231C936.23 275.231 891.617 222.664 891.617 157.819Z" fill="#A459D1"/>
<path d="M199.292 392.181C199.292 457.025 154.679 509.593 99.6459 509.593C44.613 509.593 0 457.025 0 392.181C0 327.336 44.613 274.769 99.6459 274.769C154.679 274.769 199.292 327.336 199.292 392.181Z" fill="#A459D1"/>
<rect x="45.2666" y="170.518" width="987.637" height="177.791" fill="#A459D1"/>
</svg>
