<svg width="39" height="26" viewBox="0 0 39 26" fill="none" xmlns="http://www.w3.org/2000/svg">
<path d="M39 3.11498C37.5343 3.63573 35.9842 3.97997 34.398 4.13701C36.0714 3.3183 37.3255 2.03031 37.9275 0.511977C36.3549 1.2786 34.6335 1.81874 32.838 2.10891C31.6379 1.04307 30.0397 0.333594 28.2941 0.0917464C26.5486 -0.150101 24.7544 0.0893622 23.1929 0.772579C21.6314 1.4558 20.391 2.54412 19.6662 3.86687C18.9414 5.18962 18.7732 6.67196 19.188 8.08143C16.0084 7.94973 12.8982 7.27171 10.0594 6.09143C7.22059 4.91116 4.71675 3.25501 2.7105 1.2306C2.00682 2.23693 1.63706 3.37659 1.638 4.53624C1.6355 5.61319 1.95822 6.67392 2.57742 7.62401C3.19662 8.5741 4.09309 9.38406 5.187 9.98178C3.91556 9.95345 2.67128 9.67405 1.56 9.16735V9.24719C1.56953 10.7561 2.21519 12.216 3.38776 13.38C4.56034 14.544 6.18785 15.3405 7.995 15.6349C7.29935 15.8083 6.57711 15.8997 5.85 15.9064C5.34669 15.9016 4.84462 15.8642 4.3485 15.7946C4.86312 17.0926 5.85901 18.227 7.1976 19.0398C8.53618 19.8527 10.1509 20.3036 11.817 20.3299C9.00355 22.1428 5.52997 23.1323 1.95 23.1405C1.29818 23.1422 0.646884 23.1102 0 23.0447C3.65514 24.9774 7.91469 26.0033 12.2655 25.999C15.2679 26.0245 18.2464 25.5599 21.0271 24.6322C23.8077 23.7044 26.3348 22.3323 28.4606 20.5958C30.5865 18.8593 32.2685 16.7933 33.4085 14.5185C34.5484 12.2437 35.1235 9.80568 35.1 7.34684C35.1 7.07536 35.1 6.78792 35.1 6.50047C36.6302 5.56596 37.9499 4.42035 39 3.11498Z" fill="white"/>
</svg>
